<?xml version="1.0" standalone="no"?><svg xmlns="http://www.w3.org/2000/svg" viewBox="0 0 1440 320"><path fill="#EF5350" fill-opacity="1" d="M0,256L21.8,234.7C43.6,213,87,171,131,170.7C174.5,171,218,213,262,202.7C305.5,192,349,128,393,90.7C436.4,53,480,43,524,64C567.3,85,611,139,655,165.3C698.2,192,742,192,785,197.3C829.1,203,873,213,916,186.7C960,160,1004,96,1047,80C1090.9,64,1135,96,1178,106.7C1221.8,117,1265,107,1309,112C1352.7,117,1396,139,1418,149.3L1440,160L1440,320L1418.2,320C1396.4,320,1353,320,1309,320C1265.5,320,1222,320,1178,320C1134.5,320,1091,320,1047,320C1003.6,320,960,320,916,320C872.7,320,829,320,785,320C741.8,320,698,320,655,320C610.9,320,567,320,524,320C480,320,436,320,393,320C349.1,320,305,320,262,320C218.2,320,175,320,131,320C87.3,320,44,320,22,320L0,320Z"></path></svg>